{"title":"Inbetween.Worlds.2014.BRRip.x264.HORiZON-ArtSubs","uid":11614790,"size":2134647548,"categoryP":"video","categoryS":"movies","magnet":"?xt=urn:btih:70a1c2d4b2940c47f6b5e565a88c6bc5fb947490&amp;dn=Inbetween.Worlds.2014.BRRip.x264.HORiZON-ArtSubs&amp;tr=udp%3A%2F%2Ftracker.openbittorrent.com%3A80&amp;tr=udp%3A%2F%2Fopen.demonii.com%3A1337&amp;tr=udp%3A%2F%2Ftracker.coppersurfer.tk%3A6969&amp;tr=udp%3A%2F%2Fexodus.desync.com%3A6969","seeders":5,"leechers":2,"uploader":"lletaif","files":-1,"time":1417492344,"description":"Title:\nInbetween Worlds Aka Zwischen Welten\n\n\n\nCountry:\nGermany, 2014\n\n\nLanguage:\nGerman and English\n\n\n\nSubtitle:\nGerman for english parts\n\n\n\nIMDB: &lt;a href=&quot;\nhttp://www.imdb.com/title/tt3032028/?ref_=fn_al_tt_1&quot; rel=&quot;nofollow&quot; target=&quot;_NEW&quot;&gt;\nhttp://www.imdb.com/title/tt3032028/?ref_=fn_al_tt_1&lt;/a&gt;\n\n\nPlot:\nJesper is a soldier in the German army. Although his brother was killed whilst serving in Afghanistan, he nevertheless reports for a new tour of duty in this war zone. He and his unit are to protect a remote village from the Taliban. One of the people accompanying Jesper is a young interpreter, Tarik, whose job includes mediating between soldiers and villagers. Both sides have a hard time trying to overcome the differences in their respective ways of life. Jesper must gain the trust of both villagers and the allied Arbaki militia and his nerves are soon on edge. He finds himself increasingly morally conflicted as a result of his superiors' orders. His association with the Germans means Tarik's life is constantly under threat, but when Tarik begins to fear for his sister's safety, Jesper has to make a decision. Feo Aladag uses this portrait of an ISAF soldier in Afghanistan to explore questions of affinity and otherness, trust and failure. How humane can your actions be if you are bound by the workings of a strict military bureaucracy? What remains of the ideals of human dignity when you are caught up in a daily struggle for survival? \n\n\nTrivia:\n\nOfficial Selection Berlin Film Festival 2014\n\nWon Best Film in Sao Paulo International Film Festival 2014\n\n\n\n\nMedia Info:\n\nGeneral\nUnique ID                                : 199136496371706943333432789663504974098 (0x95D04B4CA52C528B89BF4FADF220C112)\nComplete name                            : Inbetween.Worlds.2014.BRRip.x264.HORiZON-ArtSubs.mkv\nFormat                                   : Matroska\nFormat version                           : Version 2\nFile size                                : 1.99 GiB\nDuration                                 : 1h 42mn\nOverall bit rate                         : 2 771 Kbps\nMovie name                               : Inbetween Worlds\nEncoded date                             : UTC 2014-10-11 22:56:18\nWriting application                      : DVDFab 9.1.4.0\nWriting library                          : libebml v0.7.8 + libmatroska v0.8.1\n\nVideo\nID                                       : 1\nFormat                                   : AVC\nFormat/Info                              : Advanced Video Codec\nFormat profile                           : &lt;a class=&quot;__cf_email__&quot; href=&quot;/cdn-cgi/l/email-protection&quot; data-cfemail=&quot;4109282629010d756f70&quot;&gt;[email&amp;#160;protected]&lt;/a&gt;&lt;script cf-hash='f9e31' type=&quot;text/javascript&quot;&gt;\n/* &lt;![CDATA[ */!function(){try{var t=&quot;currentScript&quot;in document?document.currentScript:function(){for(var t=document.getElementsByTagName(&quot;script&quot;),e=t.length;e--;)if(t[e].getAttribute(&quot;cf-hash&quot;))return t[e]}();if(t&amp;&amp;t.previousSibling){var e,r,n,i,c=t.previousSibling,a=c.getAttribute(&quot;data-cfemail&quot;);if(a){for(e=&quot;&quot;,r=parseInt(a.substr(0,2),16),n=2;a.length-n;n+=2)i=parseInt(a.substr(n,2),16)^r,e+=String.fromCharCode(i);e=document.createTextNode(e),c.parentNode.replaceChild(e,c)}}}catch(u){}}();/* ]]&gt; */&lt;/script&gt;\nFormat settings, CABAC                   : Yes\nFormat settings, ReFrames                : 2 frames\nCodec ID                                 : V_MPEG4/ISO/AVC\nDuration                                 : 1h 42mn\nBit rate                                 : 2 268 Kbps\nWidth                                    : 1 368 pixels\nHeight                                   : 576 pixels\nDisplay aspect ratio                     : 2.40:1\nFrame rate mode                          : Constant\nFrame rate                               : 24.000 fps\nColor space                              : YUV\nChroma subsampling                       : 4:2:0\nBit depth                                : 8 bits\nScan type                                : Progressive\nBits/(Pixel*Frame)                       : 0.120\nStream size                              : 1.63 GiB (82%)\nWriting library                          : x264 core\nDefault                                  : Yes\nForced                                   : No\nColor primaries                          : BT.709\nTransfer characteristics                 : BT.709\nMatrix coefficients                      : BT.709\n\nAudio\nID                                       : 2\nFormat                                   : AC-3\nFormat/Info                              : Audio Coding 3\nMode extension                           : CM (complete main)\nFormat settings, Endianness              : Big\nCodec ID                                 : A_AC3\nDuration                                 : 1h 42mn\nBit rate mode                            : Constant\nBit rate                                 : 448 Kbps\nChannel(s)                               : 6 channels\nChannel positions                        : Front: L C R, Side: L R, LFE\nSampling rate                            : 48.0 KHz\nBit depth                                : 16 bits\nCompression mode                         : Lossy\nStream size                              : 329 MiB (16%)\nLanguage                                 : German\nDefault                                  : Yes\nForced                                   : No","torrent":{"xt":"urn:btih:70a1c2d4b2940c47f6b5e565a88c6bc5fb947490","amp;dn":"Inbetween.Worlds.2014.BRRip.x264.HORiZON-ArtSubs","amp;tr":["udp%3A%2F%2Ftracker.openbittorrent.com%3A80","udp%3A%2F%2Fopen.demonii.com%3A1337","udp%3A%2F%2Ftracker.coppersurfer.tk%3A6969","udp%3A%2F%2Fexodus.desync.com%3A6969"],"infoHash":"70a1c2d4b2940c47f6b5e565a88c6bc5fb947490","infoHashBuffer":{"type":"Buffer","data":[112,161,194,212,178,148,12,71,246,181,229,101,168,140,107,197,251,148,116,144]},"announce":[],"urlList":[]}}